<svg id="visual" viewBox="0 0 900 600" width="900" height="600" xmlns="http://www.w3.org/2000/svg" xmlns:xlink="http://www.w3.org/1999/xlink" version="1.1"><rect x="0" y="0" width="900" height="600" fill="#f2f2f2"></rect><path d="M0 188L21.5 199C43 210 86 232 128.8 232C171.7 232 214.3 210 257.2 186C300 162 343 136 385.8 153.8C428.7 171.7 471.3 233.3 514.2 256.2C557 279 600 263 642.8 254.7C685.7 246.3 728.3 245.7 771.2 253.3C814 261 857 277 878.5 285L900 293L900 601L878.5 601C857 601 814 601 771.2 601C728.3 601 685.7 601 642.8 601C600 601 557 601 514.2 601C471.3 601 428.7 601 385.8 601C343 601 300 601 257.2 601C214.3 601 171.7 601 128.8 601C86 601 43 601 21.5 601L0 601Z" fill="#f6d8ac"></path><path d="M0 342L21.5 347.8C43 353.7 86 365.3 128.8 363.7C171.7 362 214.3 347 257.2 335C300 323 343 314 385.8 322.5C428.7 331 471.3 357 514.2 345.5C557 334 600 285 642.8 270.8C685.7 256.7 728.3 277.3 771.2 278.2C814 279 857 260 878.5 250.5L900 241L900 601L878.5 601C857 601 814 601 771.2 601C728.3 601 685.7 601 642.8 601C600 601 557 601 514.2 601C471.3 601 428.7 601 385.8 601C343 601 300 601 257.2 601C214.3 601 171.7 601 128.8 601C86 601 43 601 21.5 601L0 601Z" fill="#f8cb88"></path><path d="M0 346L21.5 343.3C43 340.7 86 335.3 128.8 350.5C171.7 365.7 214.3 401.3 257.2 413.8C300 426.3 343 415.7 385.8 412.2C428.7 408.7 471.3 412.3 514.2 405C557 397.7 600 379.3 642.8 366.5C685.7 353.7 728.3 346.3 771.2 349.8C814 353.3 857 367.7 878.5 374.8L900 382L900 601L878.5 601C857 601 814 601 771.2 601C728.3 601 685.7 601 642.8 601C600 601 557 601 514.2 601C471.3 601 428.7 601 385.8 601C343 601 300 601 257.2 601C214.3 601 171.7 601 128.8 601C86 601 43 601 21.5 601L0 601Z" fill="#fabd63"></path><path d="M0 485L21.5 474.8C43 464.7 86 444.3 128.8 441C171.7 437.7 214.3 451.3 257.2 461.2C300 471 343 477 385.8 480C428.7 483 471.3 483 514.2 474.7C557 466.3 600 449.7 642.8 440.7C685.7 431.7 728.3 430.3 771.2 445.5C814 460.7 857 492.3 878.5 508.2L900 524L900 601L878.5 601C857 601 814 601 771.2 601C728.3 601 685.7 601 642.8 601C600 601 557 601 514.2 601C471.3 601 428.7 601 385.8 601C343 601 300 601 257.2 601C214.3 601 171.7 601 128.8 601C86 601 43 601 21.5 601L0 601Z" fill="#fbae3c"></path></svg>