<svg id="visual" viewBox="0 0 900 600" width="900" height="600" xmlns="http://www.w3.org/2000/svg" xmlns:xlink="http://www.w3.org/1999/xlink" version="1.1"><rect x="0" y="0" width="900" height="600" fill="#f2f2f2"></rect><path d="M0 270L21.5 278.8C43 287.7 86 305.3 128.8 305.3C171.7 305.3 214.3 287.7 257.2 268.3C300 249 343 228 385.8 242.3C428.7 256.7 471.3 306.3 514.2 324.7C557 343 600 330 642.8 323.3C685.7 316.7 728.3 316.3 771.2 322.5C814 328.7 857 341.3 878.5 347.7L900 354L900 601L878.5 601C857 601 814 601 771.2 601C728.3 601 685.7 601 642.8 601C600 601 557 601 514.2 601C471.3 601 428.7 601 385.8 601C343 601 300 601 257.2 601C214.3 601 171.7 601 128.8 601C86 601 43 601 21.5 601L0 601Z" fill="#f6d8ac"></path><path d="M0 393L21.5 397.7C43 402.3 86 411.7 128.8 410.3C171.7 409 214.3 397 257.2 387.5C300 378 343 371 385.8 377.8C428.7 384.7 471.3 405.3 514.2 396.2C557 387 600 348 642.8 336.7C685.7 325.3 728.3 341.7 771.2 342.3C814 343 857 328 878.5 320.5L900 313L900 601L878.5 601C857 601 814 601 771.2 601C728.3 601 685.7 601 642.8 601C600 601 557 601 514.2 601C471.3 601 428.7 601 385.8 601C343 601 300 601 257.2 601C214.3 601 171.7 601 128.8 601C86 601 43 601 21.5 601L0 601Z" fill="#f8cb88"></path><path d="M0 397L21.5 394.8C43 392.7 86 388.3 128.8 400.3C171.7 412.3 214.3 440.7 257.2 450.7C300 460.7 343 452.3 385.8 449.7C428.7 447 471.3 450 514.2 444C557 438 600 423 642.8 412.7C685.7 402.3 728.3 396.7 771.2 399.5C814 402.3 857 413.7 878.5 419.3L900 425L900 601L878.5 601C857 601 814 601 771.2 601C728.3 601 685.7 601 642.8 601C600 601 557 601 514.2 601C471.3 601 428.7 601 385.8 601C343 601 300 601 257.2 601C214.3 601 171.7 601 128.8 601C86 601 43 601 21.5 601L0 601Z" fill="#fabd63"></path><path d="M0 508L21.5 499.8C43 491.7 86 475.3 128.8 472.7C171.7 470 214.3 481 257.2 489C300 497 343 502 385.8 504.3C428.7 506.7 471.3 506.3 514.2 499.5C557 492.7 600 479.3 642.8 472.2C685.7 465 728.3 464 771.2 476.2C814 488.3 857 513.7 878.5 526.3L900 539L900 601L878.5 601C857 601 814 601 771.2 601C728.3 601 685.7 601 642.8 601C600 601 557 601 514.2 601C471.3 601 428.7 601 385.8 601C343 601 300 601 257.2 601C214.3 601 171.7 601 128.8 601C86 601 43 601 21.5 601L0 601Z" fill="#fbae3c"></path></svg>