<svg id="visual" viewBox="0 0 900 600" width="900" height="600" xmlns="http://www.w3.org/2000/svg" xmlns:xlink="http://www.w3.org/1999/xlink" version="1.1"><rect x="0" y="0" width="900" height="600" fill="#f2f2f2"></rect><path d="M0 426L21.5 429.5C43 433 86 440 128.8 443.7C171.7 447.3 214.3 447.7 257.2 460.3C300 473 343 498 385.8 494.3C428.7 490.7 471.3 458.3 514.2 447C557 435.7 600 445.3 642.8 459.5C685.7 473.7 728.3 492.3 771.2 482.2C814 472 857 433 878.5 413.5L900 394L900 601L878.5 601C857 601 814 601 771.2 601C728.3 601 685.7 601 642.8 601C600 601 557 601 514.2 601C471.3 601 428.7 601 385.8 601C343 601 300 601 257.2 601C214.3 601 171.7 601 128.8 601C86 601 43 601 21.5 601L0 601Z" fill="#FBAE3C" stroke-linecap="round" stroke-linejoin="miter"></path></svg>