<svg id="visual" viewBox="0 0 900 600" width="900" height="600" xmlns="http://www.w3.org/2000/svg" xmlns:xlink="http://www.w3.org/1999/xlink" version="1.1"><rect x="0" y="0" width="900" height="600" fill="#f2f2f2"></rect><path d="M0 200L129 158L257 154L386 158L514 160L643 182L771 239L900 214L900 0L771 0L643 0L514 0L386 0L257 0L129 0L0 0Z" fill="#f6dcb6"></path><path d="M0 201L129 165L257 193L386 121L514 119L643 180L771 118L900 158L900 0L771 0L643 0L514 0L386 0L257 0L129 0L0 0Z" fill="#f8d198"></path><path d="M0 96L129 154L257 105L386 159L514 127L643 100L771 124L900 159L900 0L771 0L643 0L514 0L386 0L257 0L129 0L0 0Z" fill="#f9c67b"></path><path d="M0 118L129 57L257 76L386 87L514 80L643 88L771 109L900 68L900 0L771 0L643 0L514 0L386 0L257 0L129 0L0 0Z" fill="#faba5d"></path><path d="M0 71L129 56L257 58L386 62L514 46L643 61L771 71L900 48L900 0L771 0L643 0L514 0L386 0L257 0L129 0L0 0Z" fill="#fbae3c"></path></svg>