<svg id="visual" viewBox="0 0 900 600" width="900" height="600" xmlns="http://www.w3.org/2000/svg" xmlns:xlink="http://www.w3.org/1999/xlink" version="1.1"><rect x="0" y="0" width="900" height="600" fill="#f2f2f2"></rect><defs><linearGradient id="grad1_0" x1="33.3%" y1="0%" x2="100%" y2="100%"><stop offset="20%" stop-color="#f2f2f2" stop-opacity="1"></stop><stop offset="80%" stop-color="#f2f2f2" stop-opacity="1"></stop></linearGradient></defs><defs><linearGradient id="grad2_0" x1="0%" y1="0%" x2="66.7%" y2="100%"><stop offset="20%" stop-color="#f2f2f2" stop-opacity="1"></stop><stop offset="80%" stop-color="#f2f2f2" stop-opacity="1"></stop></linearGradient></defs><g transform="translate(900, 0)"><path d="M0 270.4C-15.6 262.8 -31.2 255.1 -42.9 243.2C-54.6 231.4 -62.4 215.3 -78.7 216.1C-94.9 217 -119.6 234.8 -134.5 233C-149.4 231.1 -154.6 209.7 -165.8 197.6C-177 185.6 -194.2 182.9 -207.2 173.8C-220.1 164.8 -228.8 149.4 -227.8 131.5C-226.7 113.6 -216 93.4 -215.2 78.3C-214.4 63.3 -223.5 53.5 -234.4 41.3C-245.2 29.2 -257.8 14.6 -270.4 0L0 0Z" fill="#FBAE3C"></path></g><g transform="translate(0, 600)"><path d="M0 -270.4C16.2 -269.7 32.4 -269 45.7 -259C58.9 -249 69.1 -229.6 79.3 -218C89.6 -206.4 99.7 -202.5 118.5 -205.2C137.3 -208 164.6 -217.4 173.8 -207.2C183.1 -196.9 174.2 -166.9 181.6 -152.3C188.9 -137.8 212.5 -138.6 226 -130.5C239.6 -122.4 243.1 -105.2 246.2 -89.6C249.3 -74 252.1 -59.8 256.1 -45.1C260 -30.5 265.2 -15.2 270.4 0L0 0Z" fill="#FBAE3C"></path></g></svg>